<mxfile host="app.diagrams.net" modified="2023-07-21T08:14:11.863Z" agent="Mozilla/5.0 (Windows NT 10.0; Win64; x64) AppleWebKit/537.36 (KHTML, like Gecko) Chrome/114.0.0.0 Safari/537.36 Edg/114.0.1823.82" etag="iLXQr5YwOZXe-hwBiVOG" version="21.6.3" type="github">
  <diagram name="第 1 页" id="KpwH38NJhL-2iP__na4u">
    <mxGraphModel dx="1166" dy="775" grid="1" gridSize="10" guides="1" tooltips="1" connect="1" arrows="1" fold="1" page="1" pageScale="1" pageWidth="827" pageHeight="1169" math="0" shadow="0">
      <root>
        <mxCell id="0" />
        <mxCell id="1" parent="0" />
        <mxCell id="4NqjiliNqMVZv8EwBXte-3" value="" style="edgeStyle=orthogonalEdgeStyle;rounded=0;orthogonalLoop=1;jettySize=auto;html=1;" edge="1" parent="1" source="4NqjiliNqMVZv8EwBXte-1" target="4NqjiliNqMVZv8EwBXte-2">
          <mxGeometry relative="1" as="geometry" />
        </mxCell>
        <mxCell id="4NqjiliNqMVZv8EwBXte-1" value="" style="ellipse;whiteSpace=wrap;html=1;rounded=0;shadow=0;comic=0;labelBackgroundColor=none;strokeWidth=1;fillColor=#000000;fontFamily=Verdana;fontSize=12;align=center;" vertex="1" parent="1">
          <mxGeometry x="399" y="150" width="30" height="30" as="geometry" />
        </mxCell>
        <mxCell id="4NqjiliNqMVZv8EwBXte-7" value="" style="edgeStyle=orthogonalEdgeStyle;rounded=0;orthogonalLoop=1;jettySize=auto;html=1;" edge="1" parent="1" source="4NqjiliNqMVZv8EwBXte-2" target="4NqjiliNqMVZv8EwBXte-6">
          <mxGeometry relative="1" as="geometry" />
        </mxCell>
        <mxCell id="4NqjiliNqMVZv8EwBXte-2" value="点击开户按钮" style="rounded=1;whiteSpace=wrap;html=1;" vertex="1" parent="1">
          <mxGeometry x="364" y="210" width="100" height="30" as="geometry" />
        </mxCell>
        <mxCell id="4NqjiliNqMVZv8EwBXte-9" value="" style="edgeStyle=orthogonalEdgeStyle;rounded=0;orthogonalLoop=1;jettySize=auto;html=1;" edge="1" parent="1" source="4NqjiliNqMVZv8EwBXte-6" target="4NqjiliNqMVZv8EwBXte-8">
          <mxGeometry relative="1" as="geometry" />
        </mxCell>
        <mxCell id="4NqjiliNqMVZv8EwBXte-6" value="开户审批" style="rounded=1;whiteSpace=wrap;html=1;" vertex="1" parent="1">
          <mxGeometry x="364" y="270" width="100" height="30" as="geometry" />
        </mxCell>
        <mxCell id="4NqjiliNqMVZv8EwBXte-11" value="" style="edgeStyle=orthogonalEdgeStyle;rounded=0;orthogonalLoop=1;jettySize=auto;html=1;" edge="1" parent="1" source="4NqjiliNqMVZv8EwBXte-8" target="4NqjiliNqMVZv8EwBXte-10">
          <mxGeometry relative="1" as="geometry" />
        </mxCell>
        <mxCell id="4NqjiliNqMVZv8EwBXte-24" style="edgeStyle=orthogonalEdgeStyle;rounded=0;orthogonalLoop=1;jettySize=auto;html=1;entryX=1;entryY=0.25;entryDx=0;entryDy=0;" edge="1" parent="1" source="4NqjiliNqMVZv8EwBXte-8" target="4NqjiliNqMVZv8EwBXte-20">
          <mxGeometry relative="1" as="geometry">
            <Array as="points">
              <mxPoint x="620" y="355" />
              <mxPoint x="620" y="633" />
            </Array>
          </mxGeometry>
        </mxCell>
        <mxCell id="4NqjiliNqMVZv8EwBXte-8" value="" style="rhombus;whiteSpace=wrap;html=1;" vertex="1" parent="1">
          <mxGeometry x="386" y="330" width="56" height="50" as="geometry" />
        </mxCell>
        <mxCell id="4NqjiliNqMVZv8EwBXte-13" style="edgeStyle=orthogonalEdgeStyle;rounded=0;orthogonalLoop=1;jettySize=auto;html=1;entryX=0.5;entryY=0;entryDx=0;entryDy=0;" edge="1" parent="1" source="4NqjiliNqMVZv8EwBXte-10" target="4NqjiliNqMVZv8EwBXte-12">
          <mxGeometry relative="1" as="geometry" />
        </mxCell>
        <mxCell id="4NqjiliNqMVZv8EwBXte-10" value="上报全行" style="rounded=1;whiteSpace=wrap;html=1;" vertex="1" parent="1">
          <mxGeometry x="364" y="410" width="100" height="30" as="geometry" />
        </mxCell>
        <mxCell id="4NqjiliNqMVZv8EwBXte-12" value="" style="whiteSpace=wrap;html=1;rounded=0;shadow=0;comic=0;labelBackgroundColor=none;strokeWidth=1;fillColor=#000000;fontFamily=Verdana;fontSize=12;align=center;rotation=0;" vertex="1" parent="1">
          <mxGeometry x="340" y="470" width="147" height="10" as="geometry" />
        </mxCell>
        <mxCell id="4NqjiliNqMVZv8EwBXte-21" value="" style="rounded=0;orthogonalLoop=1;jettySize=auto;html=1;" edge="1" parent="1" source="4NqjiliNqMVZv8EwBXte-14" target="4NqjiliNqMVZv8EwBXte-20">
          <mxGeometry relative="1" as="geometry" />
        </mxCell>
        <mxCell id="4NqjiliNqMVZv8EwBXte-14" value="更新客户信息" style="rounded=1;whiteSpace=wrap;html=1;" vertex="1" parent="1">
          <mxGeometry x="299" y="510" width="100" height="30" as="geometry" />
        </mxCell>
        <mxCell id="4NqjiliNqMVZv8EwBXte-19" value="" style="edgeStyle=orthogonalEdgeStyle;rounded=0;orthogonalLoop=1;jettySize=auto;html=1;" edge="1" parent="1" source="4NqjiliNqMVZv8EwBXte-15" target="4NqjiliNqMVZv8EwBXte-18">
          <mxGeometry relative="1" as="geometry" />
        </mxCell>
        <mxCell id="4NqjiliNqMVZv8EwBXte-15" value="新增客户信息" style="rounded=1;whiteSpace=wrap;html=1;" vertex="1" parent="1">
          <mxGeometry x="430" y="510" width="100" height="30" as="geometry" />
        </mxCell>
        <mxCell id="4NqjiliNqMVZv8EwBXte-16" value="" style="endArrow=classic;html=1;rounded=0;exitX=0.25;exitY=1;exitDx=0;exitDy=0;entryX=0.5;entryY=0;entryDx=0;entryDy=0;" edge="1" parent="1" source="4NqjiliNqMVZv8EwBXte-12" target="4NqjiliNqMVZv8EwBXte-14">
          <mxGeometry width="50" height="50" relative="1" as="geometry">
            <mxPoint x="290" y="630" as="sourcePoint" />
            <mxPoint x="340" y="580" as="targetPoint" />
          </mxGeometry>
        </mxCell>
        <mxCell id="4NqjiliNqMVZv8EwBXte-17" value="" style="endArrow=classic;html=1;rounded=0;exitX=0.75;exitY=1;exitDx=0;exitDy=0;entryX=0.5;entryY=0;entryDx=0;entryDy=0;" edge="1" parent="1" source="4NqjiliNqMVZv8EwBXte-12" target="4NqjiliNqMVZv8EwBXte-15">
          <mxGeometry width="50" height="50" relative="1" as="geometry">
            <mxPoint x="387" y="490" as="sourcePoint" />
            <mxPoint x="359" y="520" as="targetPoint" />
          </mxGeometry>
        </mxCell>
        <mxCell id="4NqjiliNqMVZv8EwBXte-22" value="" style="rounded=0;orthogonalLoop=1;jettySize=auto;html=1;" edge="1" parent="1" source="4NqjiliNqMVZv8EwBXte-18" target="4NqjiliNqMVZv8EwBXte-20">
          <mxGeometry relative="1" as="geometry" />
        </mxCell>
        <mxCell id="4NqjiliNqMVZv8EwBXte-18" value="返回并保存客户唯一标识" style="rounded=1;whiteSpace=wrap;html=1;" vertex="1" parent="1">
          <mxGeometry x="430" y="569.5" width="100" height="30" as="geometry" />
        </mxCell>
        <mxCell id="4NqjiliNqMVZv8EwBXte-28" value="" style="edgeStyle=orthogonalEdgeStyle;rounded=0;orthogonalLoop=1;jettySize=auto;html=1;" edge="1" parent="1" source="4NqjiliNqMVZv8EwBXte-20" target="4NqjiliNqMVZv8EwBXte-27">
          <mxGeometry relative="1" as="geometry" />
        </mxCell>
        <mxCell id="4NqjiliNqMVZv8EwBXte-20" value="" style="whiteSpace=wrap;html=1;rounded=0;shadow=0;comic=0;labelBackgroundColor=none;strokeWidth=1;fillColor=#000000;fontFamily=Verdana;fontSize=12;align=center;rotation=0;" vertex="1" parent="1">
          <mxGeometry x="340.5" y="630" width="147" height="10" as="geometry" />
        </mxCell>
        <mxCell id="4NqjiliNqMVZv8EwBXte-23" value="审批通过" style="text;html=1;align=center;verticalAlign=middle;resizable=0;points=[];autosize=1;strokeColor=none;fillColor=none;" vertex="1" parent="1">
          <mxGeometry x="410" y="380" width="70" height="30" as="geometry" />
        </mxCell>
        <mxCell id="4NqjiliNqMVZv8EwBXte-25" value="审批不通过" style="text;html=1;align=center;verticalAlign=middle;resizable=0;points=[];autosize=1;strokeColor=none;fillColor=none;" vertex="1" parent="1">
          <mxGeometry x="450" y="330" width="80" height="30" as="geometry" />
        </mxCell>
        <mxCell id="4NqjiliNqMVZv8EwBXte-30" value="" style="edgeStyle=orthogonalEdgeStyle;rounded=0;orthogonalLoop=1;jettySize=auto;html=1;" edge="1" parent="1" source="4NqjiliNqMVZv8EwBXte-27" target="4NqjiliNqMVZv8EwBXte-29">
          <mxGeometry relative="1" as="geometry" />
        </mxCell>
        <mxCell id="4NqjiliNqMVZv8EwBXte-27" value="通知客户开户结果" style="rounded=1;whiteSpace=wrap;html=1;" vertex="1" parent="1">
          <mxGeometry x="364" y="670" width="100" height="30" as="geometry" />
        </mxCell>
        <mxCell id="4NqjiliNqMVZv8EwBXte-29" value="" style="shape=mxgraph.bpmn.shape;html=1;verticalLabelPosition=bottom;labelBackgroundColor=#ffffff;verticalAlign=top;perimeter=ellipsePerimeter;outline=end;symbol=terminate;rounded=0;shadow=0;comic=0;strokeWidth=1;fontFamily=Verdana;fontSize=12;align=center;" vertex="1" parent="1">
          <mxGeometry x="400" y="730" width="30" height="30" as="geometry" />
        </mxCell>
      </root>
    </mxGraphModel>
  </diagram>
</mxfile>
